<?xml version="1.0" standalone="no"?>
<!DOCTYPE svg PUBLIC "-//W3C//DTD SVG 1.1//EN" "http://www.w3.org/Graphics/SVG/1.1/DTD/svg11.dtd">
<svg xmlns="http://www.w3.org/2000/svg">
<metadata>Copyright (C) 2018 by original authors @ fontello.com</metadata>
<defs>
<font id="fontello" horiz-adv-x="1000" >
<font-face font-family="fontello" font-weight="400" font-stretch="normal" units-per-em="1000" ascent="850" descent="-150" />
<missing-glyph horiz-adv-x="1000" />
<glyph glyph-name="nuevo" unicode="&#xe800;" d="M608 810l-468 0 0-920 720 0 0 668z m-8-260l0 212 212-212z" horiz-adv-x="1000" />

<glyph glyph-name="pedido" unicode="&#xe801;" d="M262 754l-104-131-38 33-53-60 70-62 32-28 26 33 130 167z m118-84l0-80 540 0 0 80z m-118-196l-104-131-38 33-53-60 70-62 32-28 26 33 130 167z m118-84l0-80 540 0 0 80z m-118-196l-104-131-38 33-53-60 70-62 32-28 26 33 130 167z m118-84l0-80 540 0 0 80z" horiz-adv-x="1000" />

<glyph glyph-name="pedido1" unicode="&#xe802;" d="M620 830c-12 0-20-8-20-20l0-260 40 0 0 260c0 12-8 20-20 20z m20-280l0-172 66 66c8 8 20 8 28 0 8-8 8-20 0-28l-114-114-114 114c-8 8-8 20 0 28 8 8 20 8 28 0l66-66 0 172-274 0-42 172c-14 46-38 88-110 88l-134 0c-22 0-40-18-40-40 0-22 18-40 40-40 22 0 40 18 40 40l94 0c42 0 58-14 72-58l160-646c9-31 18-67 53-85-11-14-19-31-19-51 0-44 36-80 80-80 44 0 80 36 80 80 0 15-4 28-11 40l122 0c-7-12-11-25-11-40 0-44 36-80 80-80 44 0 80 36 80 80 0 21-8 39-21 54 0 2 1 4 1 6 0 12-8 20-20 20l-306 0c-54 0-60 22-72 66l-12 54 366 0c8 0 16 6 18 12l144 380c2 6 2 14-2 18-4 6-10 10-16 10z m-124-580l4 0c22 0 40-18 40-40 0-22-18-40-40-40-22 0-40 18-40 40 0 21 16 38 36 40z m264 0c22 0 40-18 40-40 0-22-18-40-40-40-22 0-40 18-40 40 0 22 18 40 40 40z" horiz-adv-x="1000" />

<glyph glyph-name="pedido1-fill" unicode="&#xe803;" d="M618 831c-1 0-2-1-2-1-10-2-16-10-16-20l0-351-66 65c-4 5-10 7-16 7-1 0-2-1-2-1-8-1-14-7-16-14-2-7 0-15 6-20l100-100 14-14 14 14 100 100c8 8 8 20 0 28-8 8-20 8-28 0l-66-65 0 351c0 6-2 11-6 15-4 4-10 6-16 6z m-584-21c0 0-1 0-1-1-1 0-1 1-1 0 0 0-1 0-1 0-18-4-31-20-31-39 0-22 18-40 40-40 22 0 40 18 40 40l93 0c25 0 38-5 48-14 9-8 17-23 23-45l160-645c6-23 12-47 29-66 7-8 16-15 26-19-11-14-19-32-19-51 0-44 36-80 80-80 44 0 80 36 80 80 0 15-4 28-11 40l122 0c-7-12-11-25-11-40 0-44 36-80 80-80 44 0 80 36 80 80 0 20-8 39-21 53 2 6 1 13-3 18-3 6-9 9-16 9l-306 0c-30 0-43 7-51 16-9 10-14 27-20 49l0 1-14 54 367 0c9 0 16 5 19 13l144 380c2 7 1 14-3 20-5 6-12 8-19 7-7-1-13-6-16-13l-138-367-363 0-137 551c0 0 0 1 0 1-7 26-17 48-35 64-18 17-44 24-75 24l-133 0c-1 0-1 0-2 0 0 0-1 0-2 0 0 0-1 0-2 0z m486-840c22 0 40-18 40-40 0-22-18-40-40-40-22 0-40 18-40 40 0 22 18 40 40 40z m260 0c22 0 40-18 40-40 0-22-18-40-40-40-22 0-40 18-40 40 0 22 18 40 40 40z" horiz-adv-x="1000" />

<glyph glyph-name="plastico" unicode="&#xe804;" d="M460 830c-40 0-60-26-60-47l0-53c0-11 9-20 20-20l160 0c11 0 20 9 20 20l0 53c0 21-20 47-60 47l-80 0z m-40-160c-11 0-20-9-20-20l0-37c-24-16-80-58-80-123l0-60 120 0c11 0 20-9 20-20 0-11-9-20-20-20l-120 0 0-80 120 0c11 0 20-9 20-20 0-11-9-20-20-20l-120 0 0-80 120 0c11 0 20-9 20-20 0-11-9-20-20-20l-120 0 0-62 0-58 0-76c0-46 36-84 80-84l40 0c11 0 20 9 20 20 0 11 9 20 20 20l40 0c11 0 20-9 20-20 0-11 9-20 20-20l40 0c44 0 80 38 80 84l0 196-120 0c-11 0-20 9-20 20 0 11 9 20 20 20l120 0 0 80-120 0c-11 0-20 9-20 20 0 11 9 20 20 20l120 0 0 80-120 0c-11 0-20 9-20 20 0 11 9 20 20 20l120 0 0 60c0 61-56 106-80 122l0 38c0 11-9 20-20 20l-160 0z" horiz-adv-x="1000" />

<glyph glyph-name="resumen" unicode="&#xe805;" d="M200 730c-78 0-140-62-140-140 0-78 62-140 140-140 78 0 140 62 140 140 0 78-62 140-140 140z m520 0l0-80 110 0-111-122-79 79-220-220-79 78-248-225 54-60 192 175 81-82 220 220 81-81 159 175 0-97 80 0 0 240-240 0z m-530-86l28 0 0-108-36 0 0 72-28 0 36 36z m650-254l0-420 80 0 0 420-80 0z m-280-60l0-360 80 0 0 360-80 0z m140 0l0-360 80 0 0 360-80 0z m-420-100l0-260 80 0 0 260-80 0z m140-20l0-240 80 0 0 240-80 0z m-280-80l0-160 80 0 0 160-80 0z" horiz-adv-x="1000" />

<glyph glyph-name="sync" unicode="&#xe806;" d="M493 809c-103-1-207-37-292-109-102-87-161-215-161-350 0-13 0-27 2-42l2-18 120 0-1 23c-21 186 114 354 301 374 115 12 228-35 300-124l-92-93 268 0 0 268-90-90c-93 109-225 164-357 161z m343-399l2-22c20-187-115-355-302-375-114-12-228 35-300 125l92 92-268 0 0-268 90 90c165-193 456-217 649-52 102 87 161 215 161 350 0 13 0 27-2 42l-2 18z" horiz-adv-x="1000" />

<glyph glyph-name="vender" unicode="&#xe807;" d="M503 810c-6 0-12 0-19-1-12-2-25-6-36-16l-392-393c-21-20-21-54 0-74l113-115c1-1 2-1 4-2 0-1 0-1 1-1 0 0 0 0 0 0 1-1 1-2 2-2l300-300c20-21 54-21 74 0l393 392c10 11 14 24 16 36 1 13 1 25 1 36l0 3c0 1 0 4 0 8 0 2 0 6 0 9 0 6 0 11 0 19 0 24 0 57 0 89 0 63 0 127 0 129 0 35-28 63-63 63l-57 0 0 57c0 35-28 63-63 63l-257 0c-5 0-11 0-17 0z m0-40c5 0 11 0 17 0l257 0c13 0 23-10 23-23l0-57-75 0c-1 1-2 2-2 3-12 11-28 17-43 17-15 0-31-6-42-17-1-1-2-2-3-3-10 0-20 0-31-1-12-2-25-6-36-16l-392-393c-3-3-6-6-8-10l-84 84c-5 5-5 13 0 18l392 392c2 3 6 4 14 5 4 1 8 1 13 1z m120-120l274 0c13 0 23-10 23-23 0-1 0-66 0-129 0-32 0-65 0-89 0-12 0-21 0-28 0-4 0-7 0-8 0-1 0-2 0-2 0-1 0-1 0-1 0-12 0-23-1-31-1-7-2-11-5-13l-392-392c-5-5-13-5-18 0l-300 300c-5 5-5 13 0 18l392 392c2 3 6 4 14 5 4 1 8 1 13 1z m177-60c-15 0-31-6-42-17-24-24-24-62 0-85 23-24 61-24 85 0 23 23 23 61 0 85-12 11-28 17-43 17z m0-40c5 0 10-2 14-6 8-8 8-20 0-28-8-8-20-8-28 0-8 8-8 20 0 28 4 4 9 6 14 6z" horiz-adv-x="1000" />

<glyph glyph-name="vender-fill" unicode="&#xe808;" d="M496 810c-18-1-35-4-48-17l-392-393c-10-10-16-23-16-37 0-15 6-27 16-37l66-67c3 19 11 36 25 49l393 393c29 29 67 29 91 29l209 0 0 17c0 35-28 63-63 63l-263 0c-6 0-12 0-18 0z m120-120c-18-1-35-4-48-17l-392-393c-10-10-16-23-16-37 0-15 6-27 16-37l300-300c10-10 22-16 37-16 14 0 27 6 37 16l393 392c17 18 17 43 17 66l0 26c0 51 0 186 0 226l0 11c0 35-28 63-63 63l-263 0c-6 0-12 0-18 0z m184-120c10 0 20-4 28-12 16-15 16-40 0-56-15-16-40-16-56 0-16 16-16 41 0 56 8 8 18 12 28 12z" horiz-adv-x="1000" />

<glyph glyph-name="actualizar" unicode="&#xe809;" d="M500 810a40 40 0 1 1 0-80c210 0 380-170 380-380 0-210-170-380-380-380-210 0-380 170-380 380 0 110 46 208 120 277l0-77a40 40 0 1 1 80 0l0 220-220 0a40 40 0 1 1 0-80l91 0c-93-84-151-205-151-340 0-254 206-460 460-460 254 0 460 206 460 460 0 254-206 460-460 460z" horiz-adv-x="1000" />

<glyph glyph-name="botella" unicode="&#xe80a;" d="M460 852c-34 0-62-28-62-62l0-20c0-12 10-22 22-22l160 0c12 0 22 10 22 22l0 20c0 34-28 62-62 62z m-43-143l-16-164c-24-21-102-98-102-178 0-28 2-53 4-77l123 0c19 29 45 40 74 40 29 0 56-11 74-40l123 0c2 24 4 49 4 77 0 79-78 157-102 178l-16 164c-1 0-2-1-3-1l-160 0c-1 0-2 1-3 1z m-110-459c3-31 6-61 6-95 0-34-1-60-3-85l100 0c-6 24-10 53-10 90 0 37 4 67 10 90z m283 0c6-23 10-53 10-90 0-37-4-66-10-90l100 0c-2 25-3 51-3 85 0 34 3 64 6 95z m-283-220c0-4-1-8-1-11-4-35-7-68-7-112 0-33 25-58 57-58l288 0c32 0 57 25 57 58 0 44-3 77-7 112 0 3 0 7-1 11l-119 0c-18-29-45-40-74-40-29 0-55 11-74 40z" horiz-adv-x="1000" />

<glyph glyph-name="caja" unicode="&#xe80b;" d="M20 790l0-240 960 0 0 240z m40-280l0-620 880 0 0 620z m290-60l300 0c28 0 50-22 50-50 0-28-22-50-50-50l-300 0c-28 0-50 22-50 50 0 28 22 50 50 50z" horiz-adv-x="1000" />

<glyph glyph-name="cerveza" unicode="&#xe80c;" d="M360 830c-48 0-89-25-114-62-19 12-41 22-66 22-66 0-120-53-120-120 0-36 16-67 40-89l0-579c0-41 11-74 34-98 24-23 58-33 98-32 0 0 0 0 1 0l375 0c40 0 74 10 98 33 23 23 34 57 34 99l0 86c68 0 120 44 152 101 32 58 48 131 48 199 0 72-55 120-120 120-32 0-60-7-80-12l0 68c36 21 60 60 60 104 0 67-53 120-120 120-31 0-58-14-80-34-22 20-49 34-80 34-20 0-38-6-54-14-26 31-63 54-106 54z m0-40c34 0 69-21 85-48 3-5 8-8 13-9 6-1 11 0 16 3 12 9 28 14 46 14 25 0 50-13 64-32 4-5 10-8 16-8 6 0 13 3 16 8 14 19 39 32 64 32 46 0 80-34 80-80 0-45-34-80-80-80-25 0-50 13-64 32-3 5-10 8-16 8-6 0-12-3-16-8-9-12-44-41-44-86 0-55 11-95 21-124 11-29 19-49 19-62 0-33-27-60-60-60-33 0-60 27-60 60 0 13 8 33 19 62 10 29 21 69 21 124 0 42-30 70-42 82-7 8-19 8-27 1-20-18-42-29-71-29-33 0-61 17-80 41-4 5-11 8-18 7-7 0-13-4-16-10-12-24-37-38-66-38-45 0-80 35-80 80 0 46 35 80 80 80 22 0 41-9 59-25 5-4 11-6 18-5 6 2 11 6 14 12 15 35 49 58 89 58z m-95-198c25-24 57-42 95-42 32 0 58 12 80 28 10-11 20-25 20-42 0-47-8-80-17-106l-303 0 0 127c13-4 26-7 40-7 34 0 64 17 85 42z m338-10c21-18 47-32 77-32 7 0 14 1 20 2l0-78c0-3 0-6 0-8l0-36-103 0c-9 26-17 59-17 106 0 17 11 31 23 46z m217-112c47 0 80-27 80-80 0-62-15-129-43-179-28-50-66-81-117-81l0 276c1 3 1 6 0 8l0 42c16 5 47 14 80 14z m-680-80l288 0c-4-13-8-26-8-40 0-55 45-100 100-100 55 0 100 45 100 100 0 14-4 27-8 40l88 0 0-276c0-3 0-6 0-8l0-102c0-35-8-57-22-70-14-14-36-22-70-22l-376 0c0 0 0 0-1 0-33-1-54 7-68 20-14 14-23 36-23 70z" horiz-adv-x="1000" />

<glyph glyph-name="cerveza_fill" unicode="&#xe80d;" d="M360 830c-46 0-88-22-114-60-20 12-42 20-66 20-66 0-120-54-120-120 0-36 16-68 40-90l0-150 384 0c8 26 16 60 16 106 0 38-24 64-36 78l-4 4c-4 4-8 6-14 6-6 0-10-2-14-6-20-18-46-28-72-28-32 0-60 14-80 40-4 6-10 8-16 8-6 0-12-4-16-10-14-24-40-38-68-38-44 0-80 36-80 80 0 44 36 80 80 80 22 0 42-8 56-24 4-4 12-6 18-6 6 2 12 6 14 12 18 36 54 58 92 58 36 0 68-18 86-48 2-4 8-8 12-10 6-2 12 0 16 4 14 8 30 14 46 14 26 0 48-12 64-32 8-10 24-10 32 0 16 20 38 32 64 32 44 0 80-36 80-80 0-44-36-80-80-80-26 0-48 12-64 32-8 10-24 10-32 0-2-2-4-6-8-10-14-16-36-42-36-76 0-46 6-80 16-106l184 0 0 136c36 22 60 60 60 104 0 66-54 120-120 120-30 0-58-12-80-30-22 20-50 30-80 30-18 0-36-4-52-12-26 32-66 52-108 52z m460-320c-14 0-28-2-40-4l0-40c12 2 26 4 40 4 48 0 80-32 80-80 0-110-44-222-120-252l0-42c104 28 160 164 160 294 0 70-50 120-120 120z m-720-120l0-388c0-86 48-132 132-132l376 0c86 0 132 48 132 132l0 388-170 0c6-16 10-28 10-40 0-34-26-60-60-60-34 0-60 26-60 60 0 12 4 24 10 40z" horiz-adv-x="1000" />

<glyph glyph-name="cliente" unicode="&#xe80e;" d="M500 790c-111 0-200-89-200-200l0-120c0-65 32-123 80-159l0-91c0-2 0-4-6-9-5-5-14-11-26-17-25-13-61-25-97-43-36-17-73-39-102-72-29-32-49-75-49-129l0-20 800 0 0 20c0 55-20 98-49 130-29 32-66 54-102 71-36 18-72 31-96 43-13 6-22 12-27 17-5 5-6 7-6 9l0 91c48 36 80 94 80 159l0 120c0 111-89 200-200 200z m0-40c89 0 160-71 160-160l0-120c0-55-29-105-71-133l-9-6 0-111c0-15 8-29 18-39 10-9 23-16 37-23 28-14 62-27 96-43 34-16 67-36 90-62 20-21 31-49 35-83l-712 0c4 34 15 61 35 83 23 26 56 46 90 62 34 17 68 29 96 43 14 7 27 14 37 24 10 9 18 23 18 38l0 111-9 6c-42 28-71 78-71 133l0 120c0 89 71 160 160 160z" horiz-adv-x="1000" />

<glyph glyph-name="cliente-fill" unicode="&#xe80f;" d="M696 174c-34 14-76 32-76 46l0 90c50 38 80 98 80 160l0 120c0 110-90 200-200 200-110 0-200-90-200-200l0-120c0-62 30-124 80-160l0-90c0-12-42-30-76-46-82-34-204-86-204-224l0-20 800 0 0 20c0 138-122 190-204 224z" horiz-adv-x="1000" />

<glyph glyph-name="clientes" unicode="&#xe810;" d="M540 730c-85 0-151-35-187-87-9-12-16-25-21-38l-12 25-12 0c-70 0-122-28-149-70-25-38-26-86-11-131-6-9-11-21-10-37 3-18 7-31 15-41 3-4 8-4 12-7 3-15 7-29 13-41 3-8 7-14 11-20 1-2 4-3 5-5 0-15 0-29-1-46-4-9-13-17-29-26-18-8-41-16-65-27-23-10-48-23-67-43-19-21-32-50-32-86l0-20 145 0c-3-12-5-26-5-40l0-20 720 0 0 20c0 14-2 28-5 40l146 0-1 21c-2 37-17 65-37 85-20 20-45 33-69 43-24 10-47 18-65 27-16 8-25 16-29 25l0 45c1 2 3 3 5 5 5 5 9 12 13 19 7 12 12 26 15 41 4 2 5 2 10 7 8 9 16 23 18 43 2 17-4 28-9 36 4 10 9 19 10 31 2 18 1 39-4 59-6 21-15 41-31 56-13 13-31 21-52 24l-15 33-13 0c-29 0-58-4-86-13-6 15-15 30-27 41-15 16-36 26-60 29l-22 43z m-12-41l20-39 12 0c20 0 34-7 46-19 12-13 21-31 27-51 5-20 7-42 6-60-1-18-6-33-9-37l-11-14 12-13c0 0 10-10 8-20-1-16-7-25-12-30-5-5-7-5-7-5l-11-5-1-12c-2-14-9-34-18-50-4-7-9-14-13-19-4-5-9-8-6-7l-11-6 0-63c-4-3-9-8-16-12-13-9-31-17-44-17-13 0-31 8-44 17-7 4-12 9-16 12l0 63-11 6c3-1-2 2-6 7-4 5-8 12-13 19-9 16-16 36-18 50l-1 12-11 5c0 0-2 0-7 5-5 5-10 14-12 30l0 0c-2 10 8 20 8 20l10 10-6 13c-22 49-16 101 12 141 27 38 75 66 143 69z m207-101l13-29 13 0c18 0 29-5 38-14 9-9 16-23 20-38 4-15 5-31 3-45-1-14-6-25-7-28l-11-14 13-12c0 0 5-7 4-13-1-11-5-17-8-20-3-3-4-3-4-3l-10-5-2-12c-1-9-6-23-13-35-3-5-7-10-10-14-3-3-6-5-3-4l-11-5 0-51c-7-6-22-16-40-16l-20 0 0-58c-21 9-40 17-57 26-23 12-37 24-43 37l0 47c2 3 6 5 8 8 6 7 11 15 17 25 9 16 15 36 19 55 4 2 7 3 12 9 10 11 20 28 23 52 2 20-4 33-11 42 6 13 10 28 11 45 1 19 0 40-5 61 19 6 40 8 61 9z m-439 0l13-26 12 0c1 0 1 0 1 0-3-29 0-59 11-87-7-9-15-23-12-44 3-24 13-41 23-52 5-6 8-7 12-9 4-19 10-39 19-55 6-10 11-18 17-25 2-3 6-5 8-8l0-47c-6-13-20-25-43-37-16-9-36-17-57-26l0 58-20 0c-25 0-40 11-46 16 0 14 0 26 0 40l0 12-10 5c3-1 0 0-2 4-3 3-6 8-8 13-6 11-11 26-12 37l-1 16-16 2c0 0 0 0 0 0-2 3-5 9-7 22-1 7 2 10 2 11l14 8-7 16c-16 37-14 76 6 106 17 28 52 47 103 50z m-72-383c11-6 25-12 41-14l-3-36c-9-5-19-10-28-15l-26 48c6 5 12 11 16 17z m545-1c3-5 7-9 11-13l-17-49c-8 5-17 9-25 13l-3 36c13 2 25 7 34 13z m-344-4c3-2 5-4 9-7 12-7 26-15 43-20l-15-163-8 0c-11 27-42 111-45 174 6 5 12 10 16 16z m150 0c4-6 10-11 16-16-3-63-34-147-45-174l-8 0-15 163c17 5 32 13 43 20 4 3 6 5 9 7z m239-31c21-10 43-18 64-27 22-9 43-20 57-34 10-10 16-23 20-38l-115 0c-6 11-13 21-22 30-6 7-13 13-21 19z m-640-2l26-50c-6-6-13-11-18-18-9-8-16-18-22-29 0 0 0 0 0 0l-117 0c4 16 9 28 18 38 14 14 33 25 55 35 19 8 39 15 58 24z m455-7c27-13 56-24 84-37 30-14 57-30 76-50 15-17 24-37 28-63l-227 0c13 34 33 94 39 150z m-258 0c6-56 27-116 39-150l-226 0c3 25 12 46 27 62 19 21 46 37 76 50 28 13 57 25 84 38z" horiz-adv-x="1000" />

<glyph glyph-name="clientes-fill" unicode="&#xe811;" d="M540 730c-85 0-151-35-187-87-9-12-16-25-21-38l-12 25-12 0c-70 0-122-28-149-70-25-38-26-86-11-131-6-9-11-21-10-37 3-18 7-31 15-41 3-4 8-4 12-7 3-15 7-29 13-41 3-8 7-14 11-20 1-2 4-3 5-5 0-15 0-29-1-46-4-9-13-17-29-26-18-8-41-16-65-27-23-10-48-23-67-43-19-21-32-50-32-86l0-20 145 0c-3-12-5-26-5-40l0-20 720 0 0 20c0 14-2 28-5 40l146 0-1 21c-2 37-17 65-37 85-20 20-45 33-69 43-24 10-47 18-65 27-16 8-25 16-29 25l0 45c1 2 3 3 5 5 5 5 9 12 13 19 7 12 12 26 15 41 4 2 5 2 10 7 8 9 16 23 18 43 2 17-4 28-9 36 4 10 9 19 10 31 2 18 1 39-4 59-6 21-15 41-31 56-13 13-31 21-52 24l-15 33-13 0c-29 0-58-4-86-13-6 15-15 30-27 41-15 16-36 26-60 29l-22 43z m-12-41l20-39 12 0c20 0 34-7 46-19 12-13 21-31 27-51 5-20 7-42 6-60-1-18-6-33-9-37l-11-14 12-13c0 0 10-10 8-20-1-16-7-25-12-30-5-5-7-5-7-5l-11-5-1-12c-2-14-9-34-18-50-4-7-9-14-13-19-4-5-9-8-6-7l-11-6 0-63c-4-3-9-8-16-12-13-9-31-17-44-17-13 0-31 8-44 17-7 4-12 9-16 12l0 63-11 6c3-1-2 2-6 7-4 5-8 12-13 19-9 16-16 36-18 50l-1 12-11 5c0 0-2 0-7 5-5 5-10 14-12 30l0 0c-2 10 8 20 8 20l10 10-6 13c-22 49-16 101 12 141 27 38 75 66 143 69z m207-101l13-29 13 0c18 0 29-5 38-14 9-9 16-23 20-38 4-15 5-31 3-45-1-14-6-25-7-28l-11-14 13-12c0 0 5-7 4-13-1-11-5-17-8-20-3-3-4-3-4-3l-10-5-2-12c-1-9-6-23-13-35-3-5-7-10-10-14-3-3-6-5-3-4l-11-5 0-51c-7-6-22-16-40-16l-20 0 0-58c-21 9-40 17-57 26-23 12-37 24-43 37l0 47c2 3 6 5 8 8 6 7 11 15 17 25 9 16 15 36 19 55 4 2 7 3 12 9 10 11 20 28 23 52 2 20-4 33-11 42 6 13 10 28 11 45 1 19 0 40-5 61 19 6 40 8 61 9z m-439 0l13-26 12 0c1 0 1 0 1 0-3-29 0-59 11-87-7-9-15-23-12-44 3-24 13-41 23-52 5-6 8-7 12-9 4-19 10-39 19-55 6-10 11-18 17-25 2-3 6-5 8-8l0-47c-6-13-20-25-43-37-16-9-36-17-57-26l0 58-20 0c-25 0-40 11-46 16 0 14 0 26 0 40l0 12-10 5c3-1 0 0-2 4-3 3-6 8-8 13-6 11-11 26-12 37l-1 16-16 2c0 0 0 0 0 0-2 3-5 9-7 22-1 7 2 10 2 11l14 8-7 16c-16 37-14 76 6 106 17 28 52 47 103 50z m-72-383c11-6 25-12 41-14l-3-36c-13-7-27-14-40-22l-24 47c10 7 20 15 26 25z m545-1c8-12 19-21 32-28l-21-45c-13 9-28 17-42 24l-3 36c13 2 25 7 34 13z m-344-4c3-2 5-4 9-7 12-7 26-15 43-20l-15-163-8 0c-11 27-42 111-45 174 6 5 12 10 16 16z m150 0c4-6 10-11 16-16-3-63-34-147-45-174l-8 0-15 163c17 5 32 13 43 20 4 3 6 5 9 7z" horiz-adv-x="1000" />

<glyph glyph-name="compra" unicode="&#xe812;" d="M618 831c-1 0-2-1-2-1-10-2-16-10-16-20l0-351-66 65c-4 5-10 7-16 7-1 0-2-1-2-1-8-1-14-7-16-14-2-7 0-15 6-20l100-100 14-14 14 14 100 100c8 8 8 20 0 28-8 8-20 8-28 0l-66-65 0 351c0 6-2 11-6 15-4 4-10 6-16 6z m-584-21c0 0-1 0-1-1-1 0-1 1-1 0 0 0-1 0-1 0-18-4-31-20-31-39 0-22 18-40 40-40 22 0 40 18 40 40l93 0c25 0 38-5 48-14 9-8 17-23 23-45l160-645c6-23 12-47 29-66 7-8 16-15 26-19-11-14-19-32-19-51 0-44 36-80 80-80 44 0 80 36 80 80 0 15-4 28-11 40l122 0c-7-12-11-25-11-40 0-44 36-80 80-80 44 0 80 36 80 80 0 20-8 39-21 53 2 6 1 13-3 18-3 6-9 9-16 9l-306 0c-30 0-43 7-51 16-9 10-14 27-20 49l0 1-14 54 367 0c9 0 16 5 19 13l144 380c2 7 1 14-3 20-5 6-12 8-19 7-7-1-13-6-16-13l-138-367-363 0-137 551c0 0 0 1 0 1-7 26-17 48-35 64-18 17-44 24-75 24l-133 0c-1 0-1 0-2 0 0 0-1 0-2 0 0 0-1 0-2 0z m486-840c22 0 40-18 40-40 0-22-18-40-40-40-22 0-40 18-40 40 0 22 18 40 40 40z m260 0c22 0 40-18 40-40 0-22-18-40-40-40-22 0-40 18-40 40 0 22 18 40 40 40z" horiz-adv-x="1000" />

<glyph glyph-name="compra_fill" unicode="&#xe813;" d="M620 830c-12 0-20-8-20-20l0-260 40 0 0 260c0 12-8 20-20 20z m20-280l0-172 66 66c8 8 20 8 28 0 8-8 8-20 0-28l-114-114-114 114c-8 8-8 20 0 28 8 8 20 8 28 0l66-66 0 172-274 0-42 172c-14 46-38 88-110 88l-134 0c-22 0-40-18-40-40 0-22 18-40 40-40 22 0 40 18 40 40l94 0c42 0 58-14 72-58l160-646c9-31 18-67 53-85-11-14-19-31-19-51 0-44 36-80 80-80 44 0 80 36 80 80 0 15-4 28-11 40l122 0c-7-12-11-25-11-40 0-44 36-80 80-80 44 0 80 36 80 80 0 21-8 39-21 54 0 2 1 4 1 6 0 12-8 20-20 20l-306 0c-54 0-60 22-72 66l-12 54 366 0c8 0 16 6 18 12l144 380c2 6 2 14-2 18-4 6-10 10-16 10z m-124-580l4 0c22 0 40-18 40-40 0-22-18-40-40-40-22 0-40 18-40 40 0 21 16 38 36 40z m264 0c22 0 40-18 40-40 0-22-18-40-40-40-22 0-40 18-40 40 0 22 18 40 40 40z" horiz-adv-x="1000" />

<glyph glyph-name="configuracion" unicode="&#xe814;" d="M444 810a20 20 0 0 1-20-17l-19-119c-23-7-46-16-67-27l-98 70a20 20 0 0 1-26-2l-78-78a20 20 0 0 1-2-26l69-98c-11-22-21-44-28-68l-118-19a20 20 0 0 1-17-20l0-110a20 20 0 0 1 17-20l118-21c7-23 17-46 28-67l-70-98a20 20 0 0 1 2-26l78-78a20 20 0 0 1 26-2l99 70c21-12 43-21 67-28l19-119a20 20 0 0 1 20-17l110 0a20 20 0 0 1 20 16l21 120c23 7 46 17 67 28l99-70a20 20 0 0 1 26 2l78 78a20 20 0 0 1 2 26l-71 99c11 21 20 43 27 66l120 21a20 20 0 0 1 17 20l0 110a20 20 0 0 1-17 20l-120 19c-7 23-16 46-27 66l70 100a20 20 0 0 1-2 26l-78 78a20 20 0 0 1-26 2l-99-71c-20 12-43 21-66 28l-21 119a20 20 0 0 1-20 17l-110 0z m17-40l76 0 20-114a20 20 0 0 1 15-16c29-7 57-18 82-34a20 20 0 0 1 22 1l94 67 53-53-66-95a20 20 0 0 1-1-22c15-25 26-52 34-82a20 20 0 0 1 16-14l114-19 0-76-114-20a20 20 0 0 1-16-15c-7-29-19-57-34-82a20 20 0 0 1 1-22l68-93-54-54-95 66a20 20 0 0 1-22 1c-25-15-52-27-82-34a20 20 0 0 1-14-16l-21-114-76 0-19 113a20 20 0 0 1-15 16c-29 8-57 19-82 34a20 20 0 0 1-22 0l-94-66-53 54 66 93a20 20 0 0 1 1 22c-15 25-27 52-34 82a20 20 0 0 1-16 15l-113 20 0 76 113 19a20 20 0 0 1 16 15c7 29 19 57 34 82a20 20 0 0 1-1 22l-65 94 54 54 93-67a20 20 0 0 1 22-1c25 15 52 27 82 34a20 20 0 0 1 15 16l18 113z m39-260c-88 0-160-72-160-160 0-88 72-160 160-160 88 0 160 72 160 160 0 88-72 160-160 160z m0-40c67 0 120-53 120-120 0-66-53-120-120-120-66 0-120 54-120 120 0 67 54 120 120 120z" horiz-adv-x="1000" />

<glyph glyph-name="configuracion_fill" unicode="&#xe815;" d="M943 426l-118 19c-7 24-16 46-28 68l69 98c5 8 4 19-2 26l-78 78c-7 7-18 8-26 2l-97-70c-22 12-45 22-69 29l-20 117c-2 10-10 17-20 17h-110c-10 0-18-7-20-17l-19-117c-24-7-47-16-68-28l-97 69c-8 6-19 5-26-2l-78-78c-6-7-7-18-2-26l68-97c-12-22-22-45-29-69l-116-19c-10-2-17-10-17-20v-110c0-10 7-18 17-20l116-20c7-25 17-48 29-70l-69-96c-6-8-5-19 2-26l78-78c7-7 18-7 26-2l97 68c22-12 45-21 69-28l19-117c2-10 10-17 20-17h110c10 0 18 7 20 16l21 118c24 7 47 17 68 29l98-69c8-5 19-5 26 2l78 78c7 7 8 18 2 26l-70 97c12 22 21 45 28 68l118 21c10 2 17 10 17 20v110c0 10-7 18-17 20z m-443-216c-77 0-140 63-140 140 0 77 63 140 140 140s140-63 140-140c0-77-63-140-140-140z" horiz-adv-x="1000" />

<glyph glyph-name="credito" unicode="&#xe816;" d="M500 790c-121 0-220-99-220-220 0-121 99-220 220-220 121 0 220 99 220 220 0 121-99 220-220 220z m0-40c100 0 180-80 180-180 0-100-80-180-180-180-100 0-180 80-180 180 0 100 80 180 180 180z m-20-40l0-35c-53-9-55-56-55-62 0-49 40-58 73-66 29-6 45-11 45-30 0-12-6-31-43-31-1 0-20 0-32 12-7 7-11 18-11 31l0 1-37 0 0-1c2-42 21-66 60-74l0-25 2 0 36 0 2 0 0 25c57 9 60 53 60 62 0 48-40 57-72 65-29 6-45 11-45 29 0 22 12 32 38 32 28 0 35-17 36-33l38 0c0 16-7 32-18 44-10 11-22 18-37 21l0 35-2 0-36 0-2 0z m-211-360c-56 0-82-14-111-25l0 0c-54-21-147-66-147-66a20 20 0 1 1 18-36c0 0 93 45 144 65 31 12 45 22 96 22 113 0 110-50 156-78l0 0c16-10 42-18 71-25a20 20 0 0 1 10-3c0 0 0 0 0 0 33-8 67-14 94-14 23 0 40-4 49-10 9-5 11-10 11-20 0-12-3-16-11-21-9-5-26-9-49-9l-116 0c-49 0-118 19-118 19a20 20 0 1 1-11-38c0 0 70-21 129-21l116 0c27 0 50 4 69 15 6 3 11 7 15 12a20 20 0 0 1 4 3l180 121c31 18 53 23 66 23 12 0 17-4 21-10 6-7 7-11 3-21-4-9-15-22-34-36-24-17-289-192-320-210-23-14-41-28-62-34-22-6-47-6-88 14l0 0c-27 14-142 74-180 93-21 11-38 17-56 16-18-1-33-9-49-19a20 20 0 0 1 0 0l-54-35a20 20 0 1 1 22-34l54 35c14 9 22 13 29 13 8 0 18-2 36-11 37-19 151-79 181-94 47-23 85-25 116-16 30 8 52 26 71 37 42 24 293 191 323 213l0 0c23 16 39 33 48 53 8 20 5 43-8 61-10 13-29 25-53 25-16 0-36-6-58-16-1 4 1 9-1 12-7 15-22 26-39 29l0 0c-23 4-48-2-73-14-2 5-3 11-7 15-10 13-26 18-40 19-29 2-59-7-80-20-30-18-120-75-133-83-27 7-51 16-58 20l0 0c-18 11-50 84-176 84z m444-41c8-1 12-3 13-4 1-1 2-3 1-9l-98-68c-9 1-19 2-29 2-11 0-25 2-41 4 35 22 78 49 97 61 14 8 41 15 57 14z m102-19c5 1 10 0 13 0 8-2 9-3 11-6 1-2 1-8 0-15l-141-94c-3 14-12 27-24 36l83 57a20 20 0 0 1 2 1c19 13 40 20 56 21z" horiz-adv-x="1000" />

<glyph glyph-name="credito-fill" unicode="&#xe817;" d="M500 790c-121 0-220-99-220-220 0-121 99-220 220-220 121 0 220 99 220 220 0 121-99 220-220 220z m-20-80l2 0 36 0 2 0 0-35c15-3 27-10 37-21 11-12 18-28 18-44l-38 0c-1 16-8 33-36 33-26 0-38-10-38-32 0-18 16-23 45-29 32-8 72-17 72-65 0-9-3-53-60-62l0-25-2 0-36 0-2 0 0 25c-39 8-58 32-60 74l0 1 37 0 0-1c0-13 4-24 11-31 12-12 31-12 32-12 37 0 43 19 43 31 0 19-16 24-45 30-33 8-73 17-73 66 0 6 2 53 55 62l0 35z m-212-358c-50 0-94-18-258-92-10-4-14-16-10-26l106-236c2-6 8-10 12-12 6-2 12 0 16 2l54 36c24 16 34 18 66 2l42-22c50-26 118-62 138-72 32-16 58-22 80-22 40 0 66 16 90 32 24 16 316 206 342 224 32 22 52 48 52 68 2 56-52 70-100 40l-214-144c-34-20-64-18-84-18l-120 0c-54 0-120 20-122 20-6 2-8 8-6 12 2 6 6 8 12 6l2 0c6-2 72-20 120-20l114 0c16 0 28 4 36 10 8 6 14 12 18 20 0 2 2 2 2 4l0 2c2 6 2 10 2 16 0 24-20 48-60 50-32 2-76 10-112 20-20 6-34 12-42 16-6 4-12 10-20 18-24 26-60 66-156 66z m434 0c-22 0-46-8-66-22-14-8-74-46-110-68 26-6 54-10 74-10 14 0 28-4 38-8l130 88c0 0-30 20-66 20z m132-22c-20 0-44-8-78-30l-100-68c16-14 24-32 24-50 0-12-4-26-12-38l2 2 2 2 220 146c-6 26-38 36-58 36z" horiz-adv-x="1000" />

<glyph glyph-name="eliminar" unicode="&#xe818;" d="M840 750l-200 0 0 40c0 33-27 60-60 60l-160 0c-33 0-60-27-60-60l0-40-200 0c-11 0-20-9-20-20 0-11 9-20 20-20l22 0 72-810c2-28 26-50 54-50l384 0c28 0 52 22 54 50l72 810 22 0c11 0 20 9 20 20 0 11-9 20-20 20z m-440-780c0-11-9-20-20-20-11 0-20 9-20 20l0 660c0 11 9 20 20 20 11 0 20-9 20-20z m0 820c0 11 9 20 20 20l160 0c11 0 20-9 20-20l0-40-200 0z m120-820c0-11-9-20-20-20-11 0-20 9-20 20l0 660c0 11 9 20 20 20 11 0 20-9 20-20z m120 0c0-11-9-20-20-20-11 0-20 9-20 20l0 660c0 11 9 20 20 20 11 0 20-9 20-20z" horiz-adv-x="1000" />

<glyph glyph-name="imprimir" unicode="&#xe819;" d="M220 810l0-260-120 0c-33 0-60-27-60-60l0-360c0-33 27-60 60-60l120 0 0-180 560 0 0 180 120 0c33 0 60 27 60 60l0 360c0 33-27 60-60 60l-120 0 0 260-560 0z m40-40l480 0 0-220-480 0 0 220z m560-320c22 0 40-18 40-40 0-22-18-40-40-40-22 0-40 18-40 40 0 22 18 40 40 40z m-560-200l480 0 0-180 0-140-480 0 0 140 0 180z m80-60a20 20 0 1 1 0-40l320 0a20 20 0 1 1 0 40l-320 0z m0-80a20 20 0 1 1 0-40l240 0a20 20 0 1 1 0 40l-240 0z m0-80a20 20 0 1 1 0-40l320 0a20 20 0 1 1 0 40l-320 0z" horiz-adv-x="1000" />

<glyph glyph-name="inventario" unicode="&#xe81a;" d="M180 850c-64 0-109-22-137-44-28-23-41-47-41-47-5-10-1-22 9-27 10-5 22-1 27 9 0 0 8 16 30 33 19 16 52 31 99 34l337-854c2-5 6-9 11-11 5-3 10-3 15-1l448 176c10 4 15 15 11 25-4 11-15 16-26 12l-429-168-335 851c-3 7-11 12-19 12z m559 0c-1 0-2-1-3-1l-409-163c-10-4-15-16-11-26l60-151 57-143c0-1 1-2 1-3 1-2 2-3 2-4l60-150 57-143c2-5 5-9 10-11 5-3 11-3 16-1l409 163c5 2 9 6 11 11 2 5 2 10 0 15l-118 296c-1 1-1 1-1 1 0 1-1 3-2 4l-116 294c-3 8-12 13-21 12 0 0-1 0-2 0z m-7-46l104-260-50-20-322-128-51 128-52 132z m-91-80c-1 0-1 0-2 0-1-1-2-1-3-1l-149-60c-8-2-14-8-15-15-2-8 1-16 8-21 6-4 15-5 21-1l149 59c11 3 17 13 15 24-3 11-13 18-24 15z m210-217l103-261-371-147-50 125-54 135 22 9z m-90-79c-1-1-1-1-2-1-2 0-4-1-5-2l-149-59c-10-4-15-16-11-26 4-10 16-15 26-11l149 59c11 2 18 13 16 24-2 10-13 18-24 16z m-381-378c-55 0-100-45-100-100 0-55 45-100 100-100 55 0 100 45 100 100 0 55-45 100-100 100z m0-40c33 0 60-27 60-60 0-33-27-60-60-60-33 0-60 27-60 60 0 33 27 60 60 60z" horiz-adv-x="1000" />

<glyph glyph-name="inventario_fill" unicode="&#xe81b;" d="M180 850c-131 0-176-87-178-91-5-10-1-22 9-27 10-5 22-1 27 9 0 1 32 63 128 68l338-855c3-8 11-13 19-13 2 0 5 1 7 1l448 176c10 4 15 15 11 25-4 10-16 16-26 12l-429-168-335 851c-3 7-11 12-19 12z m564 0c-3 0-6 0-8-1l-409-163c-10-4-15-16-11-26l110-278 447 177-111 279c-2 4-6 8-11 10-2 1-5 2-7 2z m-101-126c8 0 15-5 18-13 4-10-1-22-11-26l-149-59c-2-1-5-2-7-2-8 0-15 6-18 14-4 10 1 21 11 25l149 60c2 1 5 1 7 1z m245-202l-447-177 112-279c2-5 5-9 10-12 3-1 6-1 8-1 3 0 5 0 8 1l409 163c10 4 15 16 11 26z m-126-95c8 0 15-5 18-13 4-10-1-22-11-26l-149-59c-2-1-5-1-7-1-8 0-16 4-19 12-4 10 1 22 11 26l149 59c2 1 5 2 8 2z m-382-377c-55 0-100-45-100-100 0-55 45-100 100-100 55 0 100 45 100 100 0 55-45 100-100 100z" horiz-adv-x="1000" />

<glyph glyph-name="inventario-close" unicode="&#xe81c;" d="M500 790c-133 0-240-107-240-240l0-100-80 0c-34 0-60-26-60-60l0-480c0-34 26-60 60-60l640 0c34 0 60 26 60 60l0 480c0 34-26 60-60 60l-80 0 0 100c0 133-107 240-240 240z m0-40c111 0 200-89 200-200l0-100-400 0 0 100c0 111 89 200 200 200z m0-500c34 0 60-26 60-60 0-18-8-34-20-44l0-56c0-22-18-40-40-40-22 0-40 18-40 40l0 56c-12 10-20 26-20 44 0 34 26 60 60 60z" horiz-adv-x="1000" />

<glyph glyph-name="inventario-open" unicode="&#xe81d;" d="M456 850c-24 0-48-3-72-11-126-39-198-174-159-301l0-1c5-14 19-59 28-87l-73 0c-34 0-60-26-60-60l0-480c0-34 26-60 60-60l640 0c34 0 60 26 60 60l0 480c0 34-26 60-60 60l-525 0c-6 20-25 79-32 100l0 0c-33 106 27 218 133 251 105 32 218-27 251-132 0 0 0-1 0-1 4-16 26-86 26-86 2-7 8-13 15-15 7-1 15 1 20 6 4 6 6 14 3 21 0 0-22 73-26 85l0 1c-29 95-113 159-206 169-8 1-16 1-23 1z m44-600c34 0 60-26 60-60 0-18-8-34-20-44l0-56c0-22-18-40-40-40-22 0-40 18-40 40l0 56c-12 10-20 26-20 44 0 34 26 60 60 60z" horiz-adv-x="1000" />

<glyph glyph-name="lata" unicode="&#xe81e;" d="M300 810c-22 0-40-18-40-40 0-22 18-40 40-40l400 0c22 0 40 18 40 40 0 22-18 40-40 40z m-42-120c-5-6-9-12-13-17-17-22-34-42-41-63l136 0c11 0 20-9 20-20 0-11-9-20-20-20l-140 0 0-560c0-8 1-14 2-20l138 0c11 0 20-9 20-20 0-11-9-20-20-20l-100 0 12-19c8-24 31-41 57-41l382 0c26 0 49 17 57 41l12 19-340 0c-11 0-20 9-20 20 0 11 9 20 20 20l378 0c1 6 2 12 2 20l0 560-380 0c-11 0-20 9-20 20 0 11 9 20 20 20l376 0c-7 21-24 41-41 63-4 5-8 11-12 17z" horiz-adv-x="1000" />

<glyph glyph-name="notificacion" unicode="&#xe81f;" d="M500 850c-44 0-80-36-80-80 0-44 36-80 80-80 44 0 80 36 80 80 0 44-36 80-80 80z m-112-122c-92-39-148-127-148-238 0-220-76-275-121-308-20-15-39-28-39-52 0-84 126-120 420-120 294 0 420 36 420 120 0 24-19 37-39 52-45 33-121 88-121 308 0 111-56 199-147 238-18-45-62-78-113-78-51 0-95 33-112 78z m-8-756c0 0 0-1 0-2 0-66 54-120 120-120 66 0 120 54 120 120 0 1 0 2 0 2-38-1-78-2-120-2-42 0-82 1-120 2z" horiz-adv-x="1000" />

<glyph glyph-name="banco" unicode="&#xe820;" d="M500 810a20 20 0 0 1-9-2l-420-220a20 20 0 0 1-11-18l0-60a20 20 0 0 1 20-20l20 0 0-28c0-24 17-45 40-50l0-362-58 0 3 0c-24 4-45-17-45-41l0-55c0-23 19-44 42-44l834 0c23 0 42 19 42 42l0 55c0 24-19 43-42 43l-56 0 0 362c23 5 40 26 40 50l0 28 20 0a20 20 0 0 1 20 20l0 60a20 20 0 0 1-11 18l-420 220a20 20 0 0 1-9 2z m0-43l400-209 0-28-17 0a20 20 0 0 1-6 0l-194 0a20 20 0 0 1-3 0 20 20 0 0 1-3 0l-74 0a20 20 0 0 1-6 0l-194 0a20 20 0 0 1-3 0 20 20 0 0 1-3 0l-74 0a20 20 0 0 1-6 0l-194 0a20 20 0 0 1-3 0 20 20 0 0 1-3 0l-17 0 0 28 400 209z m-360-277l160 0 0-28c0-8-4-12-12-12l-136 0c-8 0-12 4-12 12l0 28z m200 0l40 0 0-28c0-24 17-45 40-50l0-362-120 0 0 362c23 5 40 26 40 50l0 28z m80 0l160 0 0-28c0-8-4-12-12-12l-136 0c-8 0-12 4-12 12l0 28z m200 0l40 0 0-28c0-24 17-45 40-50l0-362-120 0 0 362c23 5 40 26 40 50l0 28z m80 0l160 0 0-28c0-8-4-12-12-12l-136 0c-8 0-12 4-12 12l0 28z m-520-80l80 0 0-360-80 0 0 360z m280 0l80 0 0-360-80 0 0 360z m280 0l80 0 0-360-80 0 0 360z m-660-400a20 20 0 0 1 2 0l834 0c1 0 2-1 2-3l0-55c0-1-1-2-2-2l-834 0c-1 0-2-1-2 4l0 55c0 1 0 1 0 1z" horiz-adv-x="1000" />

<glyph glyph-name="banco-fill" unicode="&#xe821;" d="M500 810c-3 0-6-1-9-2l-420-220c-7-4-11-11-11-18l0-40 880 0 0 40c0 7-4 14-11 18l-420 220c-3 1-6 2-9 2z m-400-320l0-28c0-25 17-45 40-51l0-321 160 0 0 321c23 6 40 26 40 51l0 28-240 0z m280 0l0-28c0-25 17-45 40-51l0-321 160 0 0 321c23 6 40 26 40 51l0 28-240 0z m280 0l0-28c0-25 17-45 40-51l0-321 160 0 0 321c23 6 40 26 40 51l0 28-240 0z m-580-440c-9 0-19-3-26-9-9-8-14-19-14-32l0-55c0-24 18-44 42-44l834 0c23 0 42 19 42 42l0 55c0 24-19 43-42 43 0 0-834 0-836 0z" horiz-adv-x="1000" />

<glyph glyph-name="deuda" unicode="&#xe822;" d="M200 850c-66 0-120-54-120-120 0-66 54-120 120-120 66 0 120 54 120 120 0 66-54 120-120 120z m0-40c45 0 80-35 80-80 0-44-35-80-80-80-44 0-80 36-80 80 0 45 36 80 80 80z m-90-220c-61 0-110-49-110-110l0-266c0-1 0-3 0-4 0-2 0-4 1-6 3-30 28-54 59-54 7 0 14 2 20 4l0-250c0-30 25-54 54-54l34 0c13 0 25 6 35 14 9-8 20-14 33-14l34 0c28 0 54 23 54 54l0 28c26 3 46 12 60 25 19 17 27 37 34 55 8 17 15 32 25 41 11 10 25 17 57 17l0 40c-38 0-66-10-84-27-19-17-27-37-34-55-8-17-15-32-25-41-7-7-17-12-33-15l0 181c5-2 10-3 16-3 31 0 56 24 59 54 1 1 1 2 1 3 0 1 0 2 0 3 0 1 0 1 0 2l0 268c0 61-49 110-110 110z m0-40l180 0c39 0 70-31 70-70l0-267c0 0 0-1 0-2l0-1c0-11-9-20-20-20-7 0-13 4-16 9l0 231c0 7-4 14-10 18-6 3-14 3-20 0-7-4-10-11-10-18l0-208c-3-4-4-8-4-12 0-7 2-13 4-19l0-201-64 0 0 186c0 6-2 12-7 15-4 4-10 6-15 5-11-1-18-10-18-20l0-280c-2-4-7-6-12-6l-34 0c-11 0-14 3-14 14l0 526c0 6-2 11-6 15-4 4-10 6-16 6-1 0-2-1-2-1-10-2-16-10-16-20l0-217c0 0 0-1 0-2l0-1c0-11-9-20-20-20-11 0-19 8-20 19 0 0 0 1 0 1 0 1 0 3 0 4l0 266c0 39 31 70 70 70z m650-220c-133 0-240-107-240-240 0-133 107-240 240-240 133 0 240 107 240 240 0 133-107 240-240 240z m0-40c111 0 200-89 200-200 0-111-89-200-200-200-111 0-200 89-200 200 0 111 89 200 200 200z m-14-40l0-32c-24-2-66-22-66-72 0-94 136-44 136-116 0-24-10-44-56-44-46 0-58 34-58 54l-30 0c4-62 48-78 74-80l0-30 30 0 0 28c20 2 72 18 72 74 0 48-40 62-76 70-30 8-58 16-58 44 0 14 6 42 48 42 30 0 44-18 50-42l28 0c-8 32-22 62-64 68l0 36z m-526-320l64 0 0-26c0-10-6-14-14-14l-34 0c-9 0-14 6-14 14 0 2-1 5-2 7z" horiz-adv-x="1000" />

<glyph glyph-name="deuda-fill" unicode="&#xe823;" d="M200 850c-66 0-120-54-120-120 0-66 54-120 120-120 66 0 120 54 120 120 0 66-54 120-120 120z m-90-260c-61 0-110-49-110-110l0-290c0-22 18-40 40-40 22 0 40 18 40 40l0 240c0 5 5 10 10 10 5 0 10-5 10-10l0-526c0-32 17-54 48-54 30 0 52 23 52 54l0 272c0 6 5 10 10 10 6 0 10-4 10-10l0-206 100 0 0-39c66 7 84 47 98 81 15 34 25 58 82 58l0 40c-83 0-102-45-118-82-13-29-22-51-62-57l0 459c0 5 5 10 10 10 5 0 10-5 10-10l0-240c0-22 18-40 40-40 22 0 40 18 40 40l0 290c0 61-49 110-110 110z m650-260c-132 0-240-108-240-240 0-132 108-240 240-240 132 0 240 108 240 240 0 132-108 240-240 240z m-14-80l30 0 0-36c42-6 56-36 64-68l-28 0c-6 24-20 42-50 42-42 0-48-28-48-42 0-28 28-36 58-44 36-8 76-22 76-70 0-56-52-72-72-74l0-28-30 0 0 30c-26 2-70 18-74 80l30 0c0-20 12-54 58-54 46 0 56 20 56 44 0 72-136 22-136 116 0 50 42 70 66 72z m-526-320l0-32c0 0 1 0 1 0 2-28 23-48 51-48 31 0 48 22 48 54l0 26z" horiz-adv-x="1000" />

<glyph glyph-name="cuenta" unicode="&#xe824;" d="M500 790c-111 0-200-89-200-200l0-120c0-65 32-123 80-159l0-91c0-2 0-4-6-9-5-5-14-11-26-17-25-13-61-25-97-43-36-17-73-39-102-72-29-32-49-75-49-129l0-20 800 0 0 20c0 55-20 98-49 130-29 32-66 54-102 71-36 18-72 31-96 43-13 6-22 12-27 17-5 5-6 7-6 9l0 91c48 36 80 94 80 159l0 120c0 111-89 200-200 200z m0-40c89 0 160-71 160-160l0-120c0-55-29-105-71-133l-9-6 0-111c0-15 8-29 18-39 10-9 23-16 37-23 28-14 62-27 96-43 34-16 67-36 90-62 20-21 31-49 35-83l-712 0c4 34 15 61 35 83 23 26 56 46 90 62 34 17 68 29 96 43 14 7 27 14 37 24 10 9 18 23 18 38l0 111-9 6c-42 28-71 78-71 133l0 120c0 89 71 160 160 160z" horiz-adv-x="1000" />
</font>
</defs>
</svg>
